# xmcd
#
# Track frame offsets:
#	150
#	13468
#	25975
#	37240
#	46728
#	58355
#	70280
#	81847
#	95768
#	106904
#	116558
#	128079
#	143264
#	156098
#	167022
#	177403
#	190267
#	200464
#	210630
#	225845
#	236608
#	249178
#	260837
#	270676
#	282005
#	293356
#
# Disc length: 4052 seconds
#
# Revision: 1
# Processed by: cddbd v1.5.2PL0 Copyright (c) Steve Scherf et al.
# Submitted via: EasyCDDAExtractor 10.0.2.1
#
DISCID=730fd21a
DTITLE=Ray Price And The Cherokee Cowboys - The Honky Tonk Years 1950-1966 - C
DTITLE=D04
DYEAR=2002
DGENRE=Country
TTITLE0=Letters Have No Arms
TTITLE1=I'll Sail My Ship Alone
TTITLE2=A Mansion On The Hill
TTITLE3=I Can't Help It
TTITLE4=Remember Me (I'm The One Who Loves You)
TTITLE5=I Saw My Castles Fall Today
TTITLE6=Let Me Talk To You
TTITLE7=Please Don't Leave Me
TTITLE8=Blues Stay Away From Me
TTITLE9=Pins And Needles (In My Heart)
TTITLE10=I Love You Because
TTITLE11=Many Years Ago
TTITLE12=I'll Be There (When You Get Lonely)
TTITLE13=It's All Your Fault
TTITLE14=My Shoes Keep Walking Back To You
TTITLE15=Faded Love
TTITLE16=Gone
TTITLE17=Bye Bye Love
TTITLE18=Four Walls
TTITLE19=A Fallen Star
TTITLE20=It's All Your Fault
TTITLE21=My Shoes Keep Walking Back To You
TTITLE22=Don't Do This To Me
TTITLE23=Wall Of Tears
TTITLE24=Curtain In The Window
TTITLE25=Talk To Your Conscience
EXTD=
EXTT0=
EXTT1=
EXTT2=
EXTT3=
EXTT4=
EXTT5=
EXTT6=
EXTT7=
EXTT8=
EXTT9=
EXTT10=
EXTT11=
EXTT12=
EXTT13=
EXTT14=
EXTT15=
EXTT16=
EXTT17=
EXTT18=
EXTT19=
EXTT20=
EXTT21=
EXTT22=
EXTT23=
EXTT24=
EXTT25=
PLAYORDER=
